<?xml version="1.0" encoding="utf-8"?>
<!-- Svg Vector Icons : http://www.onlinewebfonts.com/icon -->
<!DOCTYPE svg PUBLIC "-//W3C//DTD SVG 1.1//EN" "http://www.w3.org/Graphics/SVG/1.1/DTD/svg11.dtd">
<svg version="1.1" xmlns="http://www.w3.org/2000/svg" xmlns:xlink="http://www.w3.org/1999/xlink" x="0px" y="0px" viewBox="0 0 256 256" enable-background="new 0 0 256 256" xml:space="preserve">
<metadata> Svg Vector Icons : http://www.onlinewebfonts.com/icon </metadata>
<g><g><g><path fill="#000000" d="M24.9,21.1c-6.6,1.8-11.2,6.1-13.7,12.7c-1,2.5-1,3-1.2,47.6c0,24.7,0,48,0.3,51.6c0.4,6,0.6,6.8,1.9,9.5c2.6,5.3,6.7,8.6,12.8,10.2c1.9,0.5,3.1,1.1,4,2.1l1.3,1.4v19v19l1.4-0.8c0.8-0.5,8.7-6.3,17.5-12.9c30.2-22.6,33.2-24.7,37.8-26.2c1.5-0.5,11.3-0.7,46.6-0.9l44.7-0.2l2.9-1.1c6.8-2.5,10.4-6.3,12.4-13.3c0.7-2.4,0.8-6.1,1.1-28c0.3-26.3,0.3-26.1,2.4-28c1-0.9,1.8-0.9,14.4-1.1l13.4-0.1v46.3v46.4h-10h-10l-0.1,10.2l-0.1,10.1l-11.1-8.3c-6.1-4.5-12.4-8.9-13.9-9.8c-2.7-1.5-2.9-1.5-11.8-1.9c-5-0.2-24.1-0.3-42.4-0.3c-31.7,0.1-33.5,0.2-34.8,1c-0.8,0.5-5.6,4-10.8,7.9c-10.8,8.1-11.2,8.7-6.7,9.5c1.4,0.3,3.5,0.8,4.5,1.1c1.3,0.3,16.4,0.6,45.9,0.7c39.3,0.3,44.2,0.4,45.9,1.1c5.2,2,6,2.6,36.3,25.3l19.2,14.5l0.2-19.6c0.3-22.7-0.4-20.3,6.2-22.4c7-2.1,11.2-6.3,13.4-12.9c0.9-2.8,1-3.6,1-52c0-40.1-0.1-49.6-0.6-51.7c-1.4-5.7-5.3-10.7-9.9-12.9c-4.6-2.2-6.6-2.5-22.9-2.5l-15.4-0.1l-1.2-1.2l-1.2-1.2l-0.1-10.8c-0.1-9.6-0.2-11.2-1.1-13.9c-1.9-5.7-6.2-10.4-11.7-12.7l-2.5-1l-76-0.1C38.8,20.5,26.9,20.5,24.9,21.1z M115.2,40.8c55.3,0,56.9,0,57.9,0.9l1.1,0.9v43.7c0,24-0.2,44.5-0.4,45.4l-0.4,1.8l-46.9,0.1l-46.9,0.1l-3,1.5c-1.7,0.8-8,5.2-14.1,9.9l-11.1,8.3l-0.1-10l-0.1-10H41H30.9l-0.3-1.8c-0.2-1-0.3-21-0.3-44.6c0-31.6,0.1-43.2,0.5-44.1c1.1-2.5,2.3-2.7,16.2-2.4C53.3,40.7,83.9,40.8,115.2,40.8z"/><path fill="#000000" d="M66.2,76.9c-2.1,0.6-4,1.7-5.7,3.4c-4,4.2-3.9,11.4,0.2,15.5c4.4,4.4,11.8,4.3,15.9-0.1c2.2-2.4,2.9-4.3,2.9-7.8c0-3.8-1.1-6.3-3.5-8.3C73.4,77.2,69.2,76.1,66.2,76.9z"/><path fill="#000000" d="M104.7,76.9c-5.3,1.3-8.7,5.7-8.7,11.2c0,7.2,7.1,12.5,14,10.5c11.9-3.5,10.5-20.4-1.9-21.8C107,76.7,105.5,76.7,104.7,76.9z"/><path fill="#000000" d="M143.1,76.9c-5.9,1.5-9.7,7.4-8.5,13.3c1.8,8.7,12.5,11.8,18.8,5.5c3.9-3.8,4.4-9.9,1.3-14.4C152.3,78.1,146.9,76,143.1,76.9z"/></g></g></g>
</svg>